<?xml version="1.0" encoding="UTF-8" standalone="no"?>
<svg xmlns="http://www.w3.org/2000/svg" viewBox="0 430 403 190">
 <defs>
  <radialGradient id="rg457" gradientUnits="userSpaceOnUse" cy="376.73" cx="428.84" r="195.58">
   <stop stop-opacity=".13725" offset="0"/>
   <stop stop-opacity="0" offset="1"/>
  </radialGradient>
  <radialGradient id="rg459" gradientUnits="userSpaceOnUse" cy="376.73" cx="428.84" r="195.58">
   <stop stop-opacity=".098039" offset="0"/>
   <stop stop-opacity="0" offset="1"/>
  </radialGradient>
  <radialGradient id="rg461" gradientUnits="userSpaceOnUse" cy="376.73" cx="428.84" r="195.58">
   <stop stop-opacity=".078431" offset="0"/>
   <stop stop-opacity="0" offset="1"/>
  </radialGradient>
  <linearGradient id="lg3463" y2="645.85" gradientUnits="userSpaceOnUse" x2="430.06" y1="337.5" x1="430.06">
   <stop stop-color="#d50000" offset="0"/>
   <stop stop-color="#d50000" stop-opacity=".23529" offset="1"/>
  </linearGradient>
  <linearGradient id="lg3465" y2="505.21" gradientUnits="userSpaceOnUse" x2="418.7" gradientTransform="matrix(.12422 0 0 .090322 336.83 461.01)" y1="235.72" x1="422.07">
   <stop stop-color="#fff" offset="0"/>
   <stop stop-color="#fff" stop-opacity="0" offset="1"/>
  </linearGradient>
  <linearGradient id="lg3467" y2="402.29" gradientUnits="userSpaceOnUse" x2="373.21" gradientTransform="matrix(.16865 0 0 .19961 327.36 441.43)" y1="488.7" x1="373.21">
   <stop stop-color="#fff" stop-opacity=".25431" offset="0"/>
   <stop stop-color="#fff" stop-opacity="0" offset="1"/>
  </linearGradient>
  <linearGradient id="lg3469" y2="645.85" gradientUnits="userSpaceOnUse" x2="430.06" y1="337.5" x1="430.06">
   <stop stop-color="#0955ad" offset="0"/>
   <stop stop-color="#0955ad" stop-opacity=".23529" offset="1"/>
  </linearGradient>
  <linearGradient id="lg3471" y2="505.21" gradientUnits="userSpaceOnUse" x2="418.7" gradientTransform="matrix(.083777 0 0 .060915 294.24 456.09)" y1="235.72" x1="422.07">
   <stop stop-color="#fff" offset="0"/>
   <stop stop-color="#fff" stop-opacity="0" offset="1"/>
  </linearGradient>
  <linearGradient id="lg3473" y2="402.29" gradientUnits="userSpaceOnUse" x2="373.21" gradientTransform="matrix(.11374 0 0 .13462 287.85 442.88)" y1="488.7" x1="373.21">
   <stop stop-color="#fff" stop-opacity=".25431" offset="0"/>
   <stop stop-color="#fff" stop-opacity="0" offset="1"/>
  </linearGradient>
  <linearGradient id="lg3475" y2="645.85" gradientUnits="userSpaceOnUse" x2="430.06" y1="337.5" x1="430.06">
   <stop stop-color="#5d32ae" offset="0"/>
   <stop stop-color="#5d32ae" stop-opacity=".23529" offset="1"/>
  </linearGradient>
  <linearGradient id="lg3477" y2="505.21" gradientUnits="userSpaceOnUse" x2="418.7" gradientTransform="matrix(.066591 0 0 .048419 337.28 424.3)" y1="235.72" x1="422.07">
   <stop stop-color="#fff" offset="0"/>
   <stop stop-color="#fff" stop-opacity="0" offset="1"/>
  </linearGradient>
  <linearGradient id="lg3479" y2="402.29" gradientUnits="userSpaceOnUse" x2="373.21" gradientTransform="matrix(.090408 0 0 0.107 332.2 413.8)" y1="488.7" x1="373.21">
   <stop stop-color="#fff" stop-opacity=".25431" offset="0"/>
   <stop stop-color="#fff" stop-opacity="0" offset="1"/>
  </linearGradient>
 </defs>

   <path d="m624.32 376.73c0 107.96-87.521 195.48-195.48 195.48s-195.48-87.521-195.48-195.48 87.521-195.48 195.48-195.48 195.48 87.521 195.48 195.48z" transform="matrix(.11550 0 0 .11550 108.63 445.28)" fill="#fff"/>
   <path d="m624.32 376.73c0 107.96-87.521 195.48-195.48 195.48s-195.48-87.521-195.48-195.48 87.521-195.48 195.48-195.48 195.48 87.521 195.48 195.48z" transform="matrix(.091808 0 0 .091808 154.46 415.71)" fill="#fff"/>
   <path d="m624.32 376.73c0 107.96-87.521 195.48-195.48 195.48s-195.48-87.521-195.48-195.48 87.521-195.48 195.48-195.48 195.48 87.521 195.48 195.48z" transform="matrix(.17126 0 0 .17126 144.66 444.98)" fill="#fff"/>
   <path d="m624.32 376.73c0 107.96-87.521 195.48-195.48 195.48s-195.48-87.521-195.48-195.48 87.521-195.48 195.48-195.48 195.48 87.521 195.48 195.48z" transform="matrix(.17225 .0046348 -.029118 .033964 145.17 541.11)" fill="url(#rg457)"/>
   <path d="m624.32 376.73c0 107.96-87.521 195.48-195.48 195.48s-195.48-87.521-195.48-195.48 87.521-195.48 195.48-195.48 195.48 87.521 195.48 195.48z" transform="matrix(.11617 .0031258 -.019638 .022906 117.16 538.9)" fill="url(#rg459)"/>
   <path d="m624.32 376.73c0 107.96-87.521 195.48-195.48 195.48s-195.48-87.521-195.48-195.48 87.521-195.48 195.48-195.48 195.48 87.521 195.48 195.48z" transform="matrix(.063787 .0017163 -.015609 .018207 164.44 534.17)" fill="url(#rg461)"/>
   <path d="m624.32 376.73c0 107.96-87.521 195.48-195.48 195.48s-195.48-87.521-195.48-195.48 87.521-195.48 195.48-195.48 195.48 87.521 195.48 195.48z" transform="matrix(.17126 0 0 .17126 144.66 444.98)" fill="url(#lg3463)"/>
   <path opacity="0.99" d="m242.39 495.04c0 9.7514-10.872 13.135-24.283 13.135s-24.283-3.3836-24.283-13.135 10.872-17.656 24.283-17.656 24.283 7.9051 24.283 17.656z" fill="url(#lg3465)"/>
   <path opacity=".82759" d="m196.63 528.43c0-6.6894 9.6163-9.0105 21.479-9.0105 11.862 0 21.479 2.3211 21.479 9.0105s-9.6163 12.112-21.479 12.112c-11.862 0-21.479-5.4228-21.479-12.112z" fill="url(#lg3467)"/>
   <path d="m624.32 376.73c0 107.96-87.521 195.48-195.48 195.48s-195.48-87.521-195.48-195.48 87.521-195.48 195.48-195.48 195.48 87.521 195.48 195.48z" transform="matrix(.11550 0 0 .11550 108.63 445.28)" fill="url(#lg3469)"/>
   <path opacity="0.99" d="m174.54 479.04c0 6.5766-7.3322 8.8585-16.377 8.8585s-16.377-2.282-16.377-8.8585c0-6.5766 7.3322-11.908 16.377-11.908s16.377 5.3314 16.377 11.908z" fill="url(#lg3471)"/>
   <path d="m315.68 501.56c0-4.5115 6.4855-6.0769 14.486-6.0769 8.0002 0 14.486 1.5654 14.486 6.0769s-6.4854 8.1687-14.486 8.1687c-8.0002 0-14.486-3.6573-14.486-8.1687z" fill="url(#lg3473)"/>
   <path d="m624.32 376.73c0 107.96-87.521 195.48-195.48 195.48s-195.48-87.521-195.48-195.48 87.521-195.48 195.48-195.48 195.48 87.521 195.48 195.48z" transform="matrix(.091808 0 0 .091808 154.46 415.71)" fill="url(#lg3475)"/>
   <path opacity="0.99" d="m206.85 442.55c0 5.2274-5.8281 7.0413-13.017 7.0413-7.1893 0-13.017-1.8138-13.017-7.0413 0-5.2274 5.8281-9.4651 13.017-9.4651 7.1893 0 13.017 4.2377 13.017 9.4651z" fill="url(#lg3477)"/>
   <path opacity=".82759" d="m182.32 460.44c0-3.586 5.155-4.8303 11.514-4.8303s11.514 1.2443 11.514 4.8303-5.155 6.493-11.514 6.493-11.514-2.907-11.514-6.493z" fill="url(#lg3479)"/>

    <g transform="matrix(.98386 0 .061643 .76999 45.597 317.41)">
     <path d="m329.1 325.6236v1.322h1.7477v6.6772h1.6133v-6.6772h1.7477v-1.322h-5.1087"/>
     <path d="m334.94 333.6236h1.4788v-6.3859h0.0224l1.4228 6.3859h1.2548l1.4228-6.3859h0.0224v6.3859h1.4788v-7.9992h-2.3863l-1.1539 5.6465h-0.0224l-1.1427-5.6465h-2.3975v7.9992"/>
    </g>
    <path d="m15.05 590.7936c1.5179-4.5487 4.4199-7.0667 8.612-7.0667 3.6236 0 5.5697 3.1678 4.8168 7.0667h-13.429m25.313 8.3664c3.1686-16.408-1.3511-25.749-15.988-25.749-11.653 0-21.398 9.9909-23.766 22.256-2.7137 14.052 4.6305 22.012 16.425 22.012 8.3841 0 16.944-4.2238 21.543-13.321h-13.145c-1.529 2.0307-4.204 3.0054-6.4777 3.0054-4.4052 0-6.1622-3.4115-5.5919-8.2039h27"/>
    <path d="m90.7 558.6136-14.361 1.4688-3.6719 19.012h-0.136c-1.4414-3.574-4.8109-5.6847-9.003-5.6847-12.363 0-18.023 12.013-19.937 21.923-2.0392 10.559 0.73433 22.331 11.179 22.331 6.892 0 9.6194-3.0042 11.913-5.6847h0.136l-0.89758 4.6511h13.572l11.206-58.016zm-24.86 26.49c5.0447 0 5.1184 5.4353 4.1615 10.39-0.56018 2.9008-1.5292 5.944-3.2095 7.9966-1.2369 1.511-2.8658 2.4751-5.0047 2.4751-5.0447 0-5.1341-5.4357-4.1615-10.472 0.95687-4.9548 3.1695-10.39 8.2142-10.39z"/>
    <path d="m94.24 572.2936c-3.0819 15.774-5.8056 30.524-8.5678 44.335h14.062c3.0111-15.325 5.9449-31.182 8.5678-44.335z"/>
    <path d="m97.01 557.9036-2.3391 11.995h14.089l2.2848-11.777c0.0166-0.0814 0.0272-0.1585 0.0272-0.2448 0-0.69038-0.56079-1.2512-1.2512-1.2512z"/>
    <path d="m119.08 563.0736-2.1988 11.386h-6.2526l-1.9137 9.9097h6.2526l-3.8902 20.144c-2.2275 11.534 4.1765 12.59 10.145 12.59 2.9842 0 6.2756-0.48736 9.1177-0.48736l2.3529-12.184c-1.0972 0.16245-2.1786 0.24369-3.2444 0.24369-3.5526 0-4.0048-1.7058-3.2518-5.6047l2.8392-14.702h7.5315l1.9137-9.9097h-7.5315l2.4784-12.834z"/>
    <path d="m132.87 616.6236h14.068l4.4079-22.825c0.84705-4.3862 2.6667-7.5541 6.2193-7.5541 4.2631 0 3.9282 3.574 3.1596 7.5541l-4.4078 22.825h14.068l4.4079-22.825c0.84706-4.3862 2.6667-7.5541 6.2193-7.5541 4.2631 0 3.9282 3.574 3.1595 7.5541l-4.4078 22.825h14.068l5.5843-28.917c1.3176-6.823-0.43656-14.296-9.8865-14.296-9.1657 0-13.184 6.092-13.847 6.5794-0.88956-4.2238-4.6978-6.5794-8.6767-6.5794-5.1157 0-9.5819 1.787-13.365 6.6606h-0.1421l1.0824-5.6047h-13.571l-8.1412 42.157"/>
    <path d="m224.89 601.5936c-1.0602 4.3862-3.9706 6.5794-7.1679 6.5794-2.5579 0-4.0288-1.9494-3.6523-3.8989 0.54902-2.8429 2.3558-3.7364 5.6389-4.5487 2.0125-0.48736 4.0407-1.0559 5.9342-2.0307l-0.75295 3.8989m15.759-11.697c1.5686-8.1227 3.3264-16.489-14.294-16.489-8.7394 0-18.921 1.9495-21.638 13.809h13.074c0.41617-1.787 1.7551-4.305 6.0892-4.305 2.2737 0 4.4145 1.056 3.8654 3.8989-0.51765 2.6805-2.5616 3.3303-4.5584 3.7364-7.4743 1.5433-21.022 1.056-23.595 14.377-1.7098 8.8537 3.4346 12.753 10.54 12.753 4.5473 0 9.1011-1.1372 12.838-5.0361h0.14211c-0.29069 1.1372-0.40693 2.843-0.27128 3.9801h14.352c-1.0455-2.6805-0.49739-6.2545 0.11437-9.4223l3.3412-17.301"/>
    <path d="m281.02 586.7336c1.731-10.803-7.3747-13.321-15.333-13.321-7.3894 0-17.941 2.7617-19.996 13.402-1.3961 7.2292 2.1852 11.128 12.506 13.24 6.2858 1.2996 7.3525 2.0307 6.8819 4.4675-0.47058 2.4368-3.5406 3.2491-5.3879 3.2491-1.7052 0-2.9611-0.48736-3.5305-1.2184-0.86186-1.056-1.195-2.2744-0.98368-3.7364h-13.429c-1.8888 10.884 6.8635 14.865 15.532 14.865 8.9525 0 19.369-3.1679 21.628-14.865 1.3333-6.9043-2.1759-10.072-6.5359-11.778-4.3443-1.787-9.6105-2.1119-11.736-3.2491-0.70313-0.40613-1.446-0.97473-1.2106-2.1931 0.53333-2.7617 2.9011-3.2491 4.8906-3.2491 1.1368 0 2.1952 0.40613 2.891 1.2184 0.7825 0.73103 1.218 1.787 1.0224 3.1678h12.789"/>
    <path d="m293.29 563.1736-2.181 11.294h-6.2526l-1.9137 9.9097h6.2526l-3.8902 20.144c-2.2274 11.534 4.1765 12.59 10.145 12.59 2.9842 0 6.2756-0.48736 9.1177-0.48736l2.353-12.184c-1.0972 0.16245-2.1786 0.24369-3.2444 0.24369-3.5526 0-4.0048-1.7058-3.2518-5.6047l2.8392-14.702h7.5315l1.9137-9.9097h-7.5315l2.4784-12.834z"/>
    <path d="m324.09 590.7936c1.5179-4.5487 4.42-7.0667 8.612-7.0667 3.6236 0 5.5698 3.1678 4.8168 7.0667h-13.429m25.313 8.3664c3.1686-16.408-1.3511-25.749-15.988-25.749-11.653 0-21.398 9.9909-23.766 22.256-2.7137 14.052 4.6305 22.012 16.425 22.012 8.3841 0 16.944-4.2238 21.543-13.321h-13.145c-1.529 2.0307-4.204 3.0054-6.4777 3.0054-4.4052 0-6.1622-3.4115-5.5919-8.2039h27"/>
    <path d="m352.16 616.6236h14.068l3.2157-16.652c1.7412-9.0162 5.4469-12.753 10.989-12.753 2.8421 0 4.0269 0.48735 5.3381 1.0559l2.7451-14.215c-1.2716-0.40613-2.5745-0.64981-3.9955-0.64981-5.1157 0-8.6333 2.7617-11.879 7.7978h-0.14211l1.302-6.7418-13.779 1.4439-7.8624 40.713"/>

</svg>
