<svg xmlns="http://www.w3.org/2000/svg" viewBox="0 0 576 90">
    <path fill="#00b8e6" d="M0 14.844l18.384.012 4.453 40.78 15.446-38.673h17.234l4.992 38.673 16.293-40.79 20.918.012-31.39 73.186h-18.516l-4.896-41.724-15.904 41.724h-20.445l-6.568-73.196zM139.421 71.922l1.436 12.377c-7.111 3.1-15.612 4.647-25.503 4.649-9.39 0-16.683-2.11-21.879-6.334-5.196-4.26-7.795-10.362-7.795-18.305 0-9.452 3.555-17.704 10.666-24.754 7.658-7.631 17.411-11.446 29.263-11.447 6.7 0 12.239 1.435 16.614 4.3 4.786 3.178 7.179 7.536 7.179 13.075 0 13.714-14.792 20.262-44.374 19.642.273 6.973 5.354 10.46 15.247 10.46 6.882 0 13.262-1.22 19.144-3.661zm-8.957-26.44v-.116c0-3.176-2.461-4.763-7.384-4.765-4.331 0-8.023 1.318-11.077 3.952-2.598 2.248-4.286 4.939-5.06 8.077 15.678.078 23.518-2.304 23.52-7.148zM199.504 52.417c0-6.663-2.963-9.993-8.888-9.995-3.739 0-7.158 1.453-10.256 4.358-3.192 3.022-5.401 7.013-6.632 11.97l-1.094 4.765c-.639 2.481-.912 4.649-.82 6.509.226 4.262 2.801 6.392 7.726 6.392 5.515 0 10.301-2.731 14.358-8.193 3.737-4.998 5.604-10.265 5.606-15.806zm21.183-3.716c0 10.538-3.716 19.661-11.145 27.37-8.478 8.794-19.875 13.189-34.186 13.191-8.115 0-14.358-1.413-18.734-4.242-4.376-2.827-6.542-6.837-6.495-12.028 0-2.827.5-6.39 1.504-10.693l13.462-57.677c.182-.657 22.109-3.82 22.109-3.82l-8.29 35.872h.273c5.47-5.539 12.421-8.308 20.853-8.31 6.7 0 11.918 2.092 15.658 6.276 3.327 3.719 4.989 8.408 4.991 14.063zM357.44 86.965l-18.722 2.541c.09-2.052.984-14.725.984-14.725-5.743 8.562-13.657 15.22-23.411 15.222-6.154 0-11.145-1.859-14.974-5.578-3.829-3.757-5.743-8.657-5.743-14.702 0-10.846 3.435-21.105 11.366-28.7 9.025-8.639 17.128-12.189 30.482-13.257 4.67-.374 14.693 1.408 23.297 2.806-6.377 51.427-3.281 56.393-3.281 56.393zm-18.038-31.741l3.114-14.082c-1.733-.348-3.303-.502-5.126-.502-6.201 0-11.578 2.713-16.135 8.135-4.286 5.076-6.808 11.134-6.808 16.905 0 6.432 2.756 9.646 8.273 9.646 3.372 0 6.517-1.569 9.436-4.707 3.418-3.603 5.832-8.731 7.247-15.396zM476.612 71.499l1.436 12.377c-7.111 3.1-15.612 4.647-25.503 4.649-9.391 0-16.683-2.11-21.88-6.334-5.197-4.26-7.795-10.362-7.795-18.305 0-9.452 3.555-17.704 10.666-24.754 7.658-7.631 17.411-11.446 29.263-11.447 6.7 0 12.238 1.435 16.614 4.3 4.786 3.178 7.179 7.536 7.179 13.075 0 13.714-14.792 20.262-44.373 19.642.273 6.973 5.354 10.46 15.247 10.46 6.882 0 13.263-1.22 19.144-3.661zm-8.957-26.44v-.116c0-3.176-2.462-4.763-7.384-4.765-4.331 0-8.023 1.318-11.077 3.952-2.598 2.248-4.286 4.939-5.06 8.077 15.678.078 23.518-2.304 23.52-7.148zM548.398 87.192h-21.332l7.521-32.309c.363-1.665.545-3.194.547-4.591 0-5.346-2.827-8.019-8.478-8.019-3.555 0-6.679 1.162-9.367 3.486-2.509 2.132-4.102 4.747-4.786 7.845l-7.863 33.587h-21.332c10.633-43.716 11.379-57.165 11.379-57.165 0 .178 20.902-1.061 20.902-1.061l-1.65 8.077h.41c6.062-6.276 13.856-9.414 23.384-9.414 6.061 0 10.801 1.414 14.221 4.242 3.6 3.022 5.399 7.38 5.402 13.075 0 2.402-.321 4.997-.957 7.787l-8 34.459zM239.185 3.82c.182-.657 22.108-3.821 22.108-3.821l-8.404 35.99h.274c2.872-2.595 6.13-4.609 9.777-6.043 3.919-1.549 7.792-2.322 11.624-2.324 5.88 0 10.461 1.414 13.743 4.242 3.555 3.022 5.333 7.42 5.333 13.191 0 2.481-.342 5.192-1.026 8.136l-7.931 33.994h-21.332l7.453-31.961c.455-1.781.681-3.388.684-4.823 0-5.422-2.895-8.133-8.683-8.135-5.106 0-9.162 2.132-12.17 6.392-.684 1.008-1.209 2.344-1.572 4.01l-8.068 34.517h-21.332l19.524-83.364zM366.011 30.754c-.001-.016 21.857-.881 21.857-.881l.095 33.293c.026.047 21.379-34.16 21.379-34.16l23.451-.021-38.441 58.197-20.525-.012s-6.264-38.958-7.816-56.418z"/>
    <path d="M567.276 24.981h.801c.935 0 1.38.364 1.513 1.139.223.912.357 1.55.579 1.823h1.78c-.134-.273-.312-.684-.534-1.823-.222-1.003-.578-1.596-1.29-1.824v-.091c.845-.273 1.513-.866 1.513-1.777 0-.73-.312-1.276-.756-1.596-.49-.365-1.112-.593-2.492-.593-1.201 0-2.136.136-2.804.227v7.476h1.692v-2.962zm.044-3.374c.178-.046.49-.091.934-.091 1.068 0 1.558.455 1.558 1.139 0 .775-.757 1.094-1.691 1.094h-.801v-2.143zm1.157-5.015c-4.228 0-7.566 3.283-7.566 7.476 0 4.194 3.338 7.522 7.521 7.522s7.477-3.328 7.477-7.522c0-4.194-3.294-7.476-7.432-7.476zm-.089 1.505c3.249 0 5.652 2.689 5.652 6.017 0 3.282-2.403 5.972-5.563 5.926-3.249 0-5.697-2.644-5.697-5.972 0-3.282 2.448-5.972 5.608-5.972z"/>
</svg>
